<?xml version="1.0" encoding="UTF-8" standalone="no"?>
<svg
   id="arrow-circle-down"
   viewBox="0 0 24 24"
   width="512"
   height="512"
   version="1.1"
   sodipodi:docname="arrow-square-down.svg"
   inkscape:version="1.3 (0e150ed6c4, 2023-07-21)"
   xmlns:inkscape="http://www.inkscape.org/namespaces/inkscape"
   xmlns:sodipodi="http://sodipodi.sourceforge.net/DTD/sodipodi-0.dtd"
   xmlns="http://www.w3.org/2000/svg"
   xmlns:svg="http://www.w3.org/2000/svg">
  <defs
     id="defs2" />
  <sodipodi:namedview
     id="namedview2"
     pagecolor="#ffffff"
     bordercolor="#000000"
     borderopacity="0.25"
     inkscape:showpageshadow="2"
     inkscape:pageopacity="0.0"
     inkscape:pagecheckerboard="0"
     inkscape:deskcolor="#d1d1d1"
     inkscape:zoom="1.6035156"
     inkscape:cx="255.68819"
     inkscape:cy="256"
     inkscape:window-width="1920"
     inkscape:window-height="1017"
     inkscape:window-x="-8"
     inkscape:window-y="-8"
     inkscape:window-maximized="1"
     inkscape:current-layer="arrow-circle-down" />
  <g
     id="g2"
     style="fill:#ff0000">
    <path
       d="M18.5,0H5.5A5.506,5.506,0,0,0,0,5.5v13A5.506,5.506,0,0,0,5.5,24h13A5.506,5.506,0,0,0,24,18.5V5.5A5.506,5.506,0,0,0,18.5,0ZM21,18.5A2.5,2.5,0,0,1,18.5,21H5.5A2.5,2.5,0,0,1,3,18.5V5.5A2.5,2.5,0,0,1,5.5,3h13A2.5,2.5,0,0,1,21,5.5Z"
       id="path1"
       style="fill:#ff0000" />
    <path
       d="M15.449,12.815,13.5,14.731V6.5a1.5,1.5,0,0,0-3,0v8.231L8.551,12.815a1.5,1.5,0,1,0-2.1,2.14L9.55,18a3.524,3.524,0,0,0,4.9,0l3.1-3.048a1.5,1.5,0,1,0-2.1-2.14Z"
       id="path2"
       style="fill:#ff0000" />
  </g>
</svg>
